<?xml version="1.0" encoding="UTF-8"?><svg xmlns="http://www.w3.org/2000/svg" width="1080" height="1080" viewBox="0 0 1080 1080" shape-rendering="geometricPrecision" text-rendering="geometricPrecision"><path d="M 119.709 3.238 C 99.349 4.512, 90.488 6.853, 69.309 16.552 C 51.948 24.503, 32.423 42.574, 23.217 59.213 C 16.003 72.253, 10.473 89.736, 9.023 104.095 C 7.636 117.838, 8.091 179.491, 9.591 180.991 C 10.691 182.091, 13.106 180.538, 22.790 172.500 C 26.103 169.750, 33.114 163.996, 38.370 159.713 C 50.391 149.918, 50.266 150.281, 50.493 124.500 C 50.709 100.105, 50.980 98.724, 59.189 80.318 C 64.830 67.670, 80.834 55.103, 98 49.843 L 105.500 47.545 226.500 47.022 L 347.500 46.500 351 44.313 C 357.710 40.120, 380.709 15.844, 382.972 10.566 C 384.126 7.874, 384.717 5.325, 384.285 4.903 C 383.853 4.481, 330.850 3.877, 266.500 3.562 C 202.150 3.246, 145.450 2.878, 140.500 2.744 C 135.550 2.610, 126.194 2.832, 119.709 3.238 M 618.500 3 L 459.500 3.500 452 6.553 C 434.105 13.837, 422.166 24.716, 383.044 69.393 C 362.113 93.296, 360.913 94.995, 354.740 109.462 C 352.175 115.473, 351.672 118.106, 351.290 127.500 L 350.843 138.500 354.926 147.157 C 362.497 163.210, 356.348 156.697, 478.721 278.258 C 518.736 318.008, 534.019 333.808, 534.479 335.905 C 535.508 340.587, 532.743 345.333, 521.779 357.705 C 507.541 373.771, 495.671 387.393, 488 396.473 C 484.425 400.704, 477.450 408.795, 472.500 414.454 C 467.550 420.113, 460.575 428.230, 457 432.491 C 450.497 440.243, 444.846 446.757, 420.500 474.567 C 402.526 495.098, 392.112 506.939, 381 519.479 C 375.775 525.375, 370.150 531.921, 368.500 534.026 C 365.343 538.053, 349.684 556.822, 344.394 562.920 C 340.428 567.492, 338.706 570.790, 339.374 572.533 C 340.676 575.924, 361.105 583, 369.595 583 C 376.552 583, 379.085 580.613, 411 543.976 C 417.875 536.084, 431.600 520.646, 441.500 509.669 C 451.400 498.692, 460.990 487.877, 462.812 485.637 C 466.076 481.621, 478.527 468.017, 500.462 444.500 C 506.619 437.900, 522.452 420.800, 535.647 406.500 C 548.843 392.200, 565.008 375.042, 571.570 368.372 C 584.644 355.080, 582.762 356.274, 623 335.754 C 662.036 315.847, 679.633 306.660, 681 305.476 C 681.825 304.762, 686.550 302.176, 691.500 299.731 C 706.945 292.101, 719.844 285.375, 721.219 284.233 C 721.946 283.630, 726.806 280.914, 732.020 278.197 C 737.234 275.480, 746.675 270.448, 753 267.015 C 759.325 263.582, 768.775 258.512, 774 255.748 C 779.225 252.984, 787.848 248.423, 793.162 245.611 C 819.307 231.780, 845.414 217.801, 863.500 207.951 C 909.720 182.778, 916.964 179.053, 919.750 179.024 C 920.987 179.011, 922.106 179.113, 922.236 179.250 C 922.366 179.387, 922.703 217.969, 922.986 264.987 L 923.500 350.473 926 351.630 C 930.256 353.598, 961.556 355.613, 963.450 354.041 C 964.878 352.856, 965.003 340.838, 964.739 229.615 C 964.449 106.747, 964.444 106.477, 962.211 95.261 C 955.715 62.624, 944.170 43.332, 918.964 23 C 914.513 19.409, 912.419 18.187, 899.800 11.812 C 891.797 7.769, 881.308 4.566, 872.304 3.416 C 864.866 2.465, 814.706 2.383, 618.500 3 M 452.934 48.827 C 450.482 50.382, 446.477 54.095, 444.033 57.077 C 441.590 60.060, 437.770 64.564, 435.545 67.086 C 433.320 69.608, 428.575 75.179, 425 79.465 C 421.425 83.751, 414.675 91.641, 410 96.999 C 394.965 114.231, 389.365 128.976, 394.757 137.140 C 397.378 141.110, 411.407 155.277, 445.613 188.497 C 462.601 204.996, 494.725 236.791, 517 259.154 C 553.939 296.238, 558.122 300.123, 564.574 303.331 C 583.107 312.545, 593.191 310.472, 631.500 289.572 C 658.449 274.870, 680.267 263.199, 692.500 256.942 C 698 254.129, 707.450 249.139, 713.500 245.852 C 719.550 242.565, 728.550 237.745, 733.500 235.140 C 738.450 232.536, 744.356 229.219, 746.623 227.770 C 748.891 226.320, 753.616 223.733, 757.123 222.020 C 760.631 220.306, 768.225 216.259, 774 213.027 C 779.775 209.794, 786.975 205.851, 790 204.265 C 800.003 199.020, 818.443 189.092, 822 187.035 C 825.636 184.933, 838.920 177.802, 853.845 169.941 C 858.605 167.434, 867.900 162.534, 874.500 159.052 C 881.100 155.570, 891 150.392, 896.500 147.545 C 911.846 139.600, 917.362 136.308, 919.955 133.547 L 922.333 131.016 921.096 116.891 C 918.553 87.867, 913.023 75.924, 894.755 60 C 885.025 51.519, 879.322 48.622, 869 46.919 C 865.835 46.397, 777.287 46.009, 660.446 46.006 L 457.392 46 452.934 48.827 M 122.864 165.079 C 105.210 167.317, 95.267 169.953, 81.052 176.165 C 47.247 190.939, 21.411 216.392, 5.599 250.500 L 0.500 261.500 0.500 309.500 C 0.500 335.900, 0.801 359.075, 1.170 361 C 3.375 372.522, 25.619 416.126, 46.317 449.500 C 49.387 454.450, 53.218 460.300, 54.830 462.500 C 56.442 464.700, 58.541 468.075, 59.493 470 C 61.171 473.390, 66.559 481.893, 73.927 492.779 C 75.892 495.683, 78.166 499.283, 78.980 500.779 C 79.793 502.276, 82.898 507.325, 85.880 512 C 102.137 537.495, 104.217 540.606, 117.803 559.762 C 122.586 566.506, 128.240 574.521, 130.367 577.575 C 132.493 580.628, 135.975 584.279, 138.103 585.687 C 143.039 588.953, 144.832 587.958, 151.415 578.298 C 153.963 574.559, 158.300 568.350, 161.053 564.500 C 165.945 557.657, 201.194 504.891, 209.485 492 C 218.091 478.619, 224.950 468.071, 234.521 453.500 C 239.940 445.250, 245.752 436.152, 247.437 433.282 C 281.776 374.779, 289.419 352.598, 289.400 311.500 C 289.392 292.715, 287.863 280.448, 284.030 268.400 C 281.224 259.578, 273.420 241.240, 270.719 237.121 C 269.413 235.129, 267.030 231.397, 265.422 228.827 C 257.871 216.751, 241.812 200.371, 227.231 189.873 C 216.112 181.868, 194.104 171.516, 182 168.598 C 161.542 163.666, 142.811 162.551, 122.864 165.079 M 124.773 243.501 C 101.403 249.385, 82.217 270.120, 75.447 296.807 C 72.255 309.392, 72.342 316.100, 75.862 328.699 C 82.030 350.777, 98.376 369.329, 116.626 374.966 C 146.974 384.340, 173.354 378.237, 193.667 357.144 C 201.762 348.738, 208.845 335.857, 211.067 325.500 C 212.779 317.518, 212.788 301.830, 211.083 295 C 205.650 273.235, 186.705 252.208, 166.322 245.320 C 156.585 242.030, 134.463 241.062, 124.773 243.501 M 668.344 375.041 C 660.907 376.513, 652.672 381.704, 638.347 393.950 C 636.063 395.902, 630.663 400.500, 626.347 404.167 C 622.031 407.833, 610.850 417.401, 601.500 425.429 C 592.150 433.457, 581.174 442.832, 577.109 446.263 C 573.045 449.693, 563.820 457.914, 556.609 464.530 C 540.905 478.942, 526.242 491.982, 515.037 501.500 C 510.505 505.350, 504.705 510.379, 502.149 512.675 C 499.592 514.971, 491.875 521.885, 485 528.041 C 478.125 534.196, 469.166 542.217, 465.091 545.866 C 461.016 549.515, 455.616 554.322, 453.091 556.548 C 450.566 558.775, 441.075 567.325, 432 575.548 C 422.925 583.772, 411.928 593.650, 407.563 597.500 C 403.198 601.350, 398.186 605.856, 396.425 607.513 L 393.223 610.526 393.638 690.513 C 394.042 768.295, 394.106 770.509, 395.963 770.811 C 398.372 771.204, 425.345 765.673, 434 763.011 C 441.085 760.833, 469.823 753.544, 499 746.526 C 509.175 744.079, 519.300 741.401, 521.500 740.575 C 523.700 739.748, 533.659 737.255, 543.631 735.034 C 553.602 732.813, 563.535 730.370, 565.704 729.604 C 567.872 728.839, 578.255 726.362, 588.776 724.100 C 599.298 721.837, 609.116 719.526, 610.595 718.964 C 612.074 718.401, 617.383 717.039, 622.392 715.935 C 634.682 713.228, 634.840 713.168, 636.149 710.721 C 637.537 708.128, 637.830 687.420, 638.577 539 L 639.127 429.500 641.314 425.052 C 644.212 419.155, 648.241 416.125, 650.591 418.075 C 652.159 419.377, 652.224 428.158, 651.538 546.986 C 651.134 617.119, 650.828 681.025, 650.859 689 C 650.921 705.102, 649.563 722.080, 647.975 725.046 C 646.165 728.428, 641.539 729.937, 618.757 734.579 C 606.516 737.073, 594.925 739.732, 593 740.488 C 591.075 741.244, 579.825 743.724, 568 746 C 556.175 748.276, 544.623 750.765, 542.328 751.531 C 540.034 752.297, 528.784 754.769, 517.328 757.025 C 505.873 759.280, 494.250 761.766, 491.500 762.548 C 488.750 763.330, 476.150 766.057, 463.500 768.609 C 450.850 771.161, 433.975 774.563, 426 776.169 C 392.179 782.981, 393.680 782.277, 392.599 791.825 C 391.553 801.070, 393.169 805.834, 397.993 807.729 L 401.850 809.245 401.308 827.372 C 400.715 847.177, 401.706 857.524, 405.179 867.809 C 408.402 877.352, 410.126 876.851, 371.994 877.460 C 324.812 878.214, 273.542 880.139, 261.750 881.600 C 256.176 882.290, 255.256 884.633, 260.250 885.424 C 263.138 885.881, 281.628 886.895, 317 888.538 C 323.325 888.832, 345.825 889.746, 367 890.570 C 418.551 892.577, 423.326 892.800, 439 893.946 C 446.425 894.489, 460.600 895.180, 470.500 895.482 C 480.400 895.784, 509.200 896.686, 534.500 897.486 C 559.800 898.287, 591.525 899.201, 605 899.517 C 618.475 899.832, 635.350 900.280, 642.500 900.512 C 760.121 904.322, 959.492 902.776, 1033.500 897.481 C 1054.982 895.944, 1059.500 895.155, 1059.500 892.942 C 1059.500 890.328, 1054.361 889.028, 1038.991 887.754 C 1019.907 886.172, 1019.928 886.191, 1025.455 875.264 C 1027.615 870.994, 1029.557 867.275, 1029.770 867 C 1029.984 866.725, 1035.716 866.275, 1042.508 866 C 1057.484 865.394, 1058.851 864.644, 1064.250 854.071 C 1068.669 845.417, 1068.825 843.734, 1065.514 840.423 L 1063.028 837.937 907.764 838.362 C 822.369 838.595, 750.459 839.097, 747.964 839.477 C 740.281 840.646, 738.823 838.641, 737.337 824.864 C 736.663 818.614, 735.665 810.800, 735.119 807.500 C 734.573 804.200, 733.176 793.625, 732.013 784 C 728.066 751.303, 722.755 732.875, 714.938 724.750 C 710.445 720.080, 710.263 720, 704.134 720 C 693.948 720, 689.132 723.885, 682.379 737.548 C 678.166 746.071, 676.879 747.105, 673.868 744.380 C 671.827 742.533, 671.816 742.134, 672.526 696.509 C 672.921 671.204, 673.371 647.800, 673.527 644.500 C 674.096 632.448, 675.922 580.981, 676.454 562 C 677.394 528.448, 678.895 497.781, 679.953 490.500 C 681.446 480.230, 682.670 476.542, 688.102 465.929 C 693.110 456.146, 698.236 450.841, 709.056 444.245 C 714.183 441.119, 733.597 433.473, 740.019 432.051 C 751.789 429.443, 840.539 431.467, 868.500 434.980 C 872.350 435.464, 879.100 436.316, 883.500 436.875 C 887.900 437.433, 897.800 438.402, 905.500 439.028 C 926.923 440.769, 972.777 445.867, 976.863 446.962 C 978.863 447.498, 986.737 448.640, 994.360 449.500 C 1012.699 451.568, 1013.881 450.593, 1008.028 438.221 C 999.333 419.842, 981.346 404.779, 962.500 400.095 C 957.766 398.918, 921.158 394.403, 909 393.497 C 904.325 393.148, 899.150 392.459, 897.500 391.966 C 894.993 391.216, 854.359 387.451, 800.500 382.977 C 793.900 382.429, 786.700 381.546, 784.500 381.014 C 782.300 380.483, 769.025 379.142, 755 378.036 C 705.382 374.120, 677.814 373.168, 668.344 375.041 M 769.039 485.123 C 767.367 486.139, 765.953 487.315, 765.895 487.735 C 765.365 491.592, 765.497 502.667, 766.130 507.500 C 766.562 510.800, 767.611 520.925, 768.462 530 C 770.579 552.578, 772.796 573.742, 774.166 584.441 C 775.227 592.730, 775.593 593.688, 779.179 597.579 C 781.307 599.887, 784.275 602.037, 785.774 602.355 C 788.182 602.867, 827.374 604.681, 907.500 607.990 C 921.250 608.558, 935.200 609.456, 938.500 609.986 C 941.800 610.516, 956.650 611.425, 971.500 612.007 C 986.350 612.589, 1012.221 613.698, 1028.990 614.470 C 1064.238 616.095, 1063 616.344, 1063 607.618 C 1063 600.972, 1058.274 555.794, 1056.973 550 C 1056.417 547.525, 1055.108 538.237, 1054.064 529.360 C 1052.967 520.039, 1051.484 511.904, 1050.554 510.105 C 1048.739 506.595, 1043.031 502.458, 1037.918 500.947 C 1028.509 498.166, 985.078 494.087, 937 491.469 C 930.675 491.125, 924.150 490.453, 922.500 489.976 C 916.539 488.252, 834.497 484.055, 797.789 483.596 C 774.210 483.302, 771.825 483.428, 769.039 485.123 M 8.495 485.009 C 7.441 486.713, 7.982 739.395, 9.057 748.172 C 9.619 752.753, 10.685 758.300, 11.425 760.500 C 12.166 762.700, 13.538 767.200, 14.473 770.500 C 20.154 790.538, 35.674 812.540, 54.580 827.355 C 72.591 841.469, 106.814 850.329, 131.319 847.224 C 141.445 845.940, 154.243 841.995, 157.441 839.172 C 158.574 838.172, 161.750 835.931, 164.500 834.191 C 169.757 830.865, 174.556 825.899, 198.507 799 C 206.588 789.925, 216.039 779.350, 219.509 775.500 C 238.646 754.267, 253.971 736.912, 257.479 732.500 C 259.666 729.750, 264.181 724.350, 267.513 720.500 C 270.844 716.650, 275.475 711.025, 277.803 708 C 283.136 701.070, 288.314 694.761, 298.750 682.478 C 307.525 672.149, 307.989 671.172, 305.250 668.786 C 301.411 665.442, 269.602 659.072, 266.100 660.946 C 264.061 662.038, 248.428 679.064, 239.500 689.917 C 236.200 693.929, 231.475 699.589, 229 702.496 C 226.525 705.402, 222.025 710.815, 219 714.524 C 208.748 727.094, 201.541 735.455, 184.500 754.543 C 175.150 765.017, 162.775 779.086, 157 785.808 C 143.037 802.060, 140.249 803.546, 124 803.390 C 83.938 803.005, 60.733 785.353, 51.845 748.500 C 51.274 746.134, 50.664 700.985, 50.352 638 L 49.824 531.500 47.391 527.087 C 44.738 522.274, 44.009 521.392, 24.852 499.822 C 12.001 485.352, 9.617 483.193, 8.495 485.009 M 735 495.683 C 733.625 495.908, 728.547 496.750, 723.715 497.552 C 714.328 499.112, 703.670 503.376, 700.662 506.775 C 699.540 508.042, 698.482 511.510, 697.945 515.676 C 696.701 525.325, 696.751 591.666, 698.003 594.006 C 699.789 597.343, 722.812 602.803, 746.500 605.508 C 755.826 606.573, 756.218 604.875, 753.890 573.500 C 752.910 560.300, 751.352 537.800, 750.427 523.500 C 749.501 509.200, 748.297 496.938, 747.750 496.250 C 746.799 495.055, 740.525 494.776, 735 495.683 M 1066.515 509.976 C 1066.183 510.513, 1066.389 513.550, 1066.972 516.726 C 1067.555 519.902, 1069.600 536.450, 1071.516 553.500 C 1073.432 570.550, 1075.659 587.650, 1076.465 591.500 C 1077.271 595.350, 1078.283 600.300, 1078.715 602.500 C 1079.159 604.762, 1079.621 587.382, 1079.778 562.500 C 1079.930 538.300, 1079.816 517.600, 1079.523 516.500 C 1078.947 514.338, 1071.229 509, 1068.679 509 C 1067.821 509, 1066.847 509.439, 1066.515 509.976 M 189.114 563.750 C 186.893 565.594, 182.497 577.042, 181.417 583.793 C 180.563 589.135, 182.641 591.103, 192.110 593.915 C 196.175 595.122, 203.325 597.627, 208 599.481 C 212.675 601.334, 219.268 603.415, 222.651 604.105 C 230.951 605.797, 233.022 604.449, 236.038 595.387 C 241.080 580.236, 239.409 577.411, 221.408 570.656 C 198.025 561.881, 192.730 560.748, 189.114 563.750 M 258.149 588.851 C 255.864 591.136, 252 602.649, 252 607.171 C 252 608.799, 252.486 611.039, 253.079 612.148 C 255.469 616.614, 283.604 626.905, 294.584 627.330 C 300.869 627.573, 303.535 624.589, 305.619 614.979 C 307.086 608.211, 307.093 607.150, 305.699 603.816 C 303.755 599.171, 301.151 597.808, 283.500 592.200 C 266.221 586.710, 260.982 586.018, 258.149 588.851 M 326.900 607.634 C 326.020 608.660, 324.108 613.325, 322.651 618 C 318.299 631.967, 320.111 635.181, 334.500 639.015 C 338.900 640.187, 344.300 641.768, 346.500 642.528 C 353.919 645.091, 361.729 646.216, 363.931 645.037 C 367.440 643.159, 371.684 625.259, 369.860 620.027 C 368.554 616.283, 367.729 615.826, 353.385 610.919 C 339.343 606.114, 329.275 604.866, 326.900 607.634 M 818.513 644.825 C 813.134 645.262, 812 646.458, 812 651.691 C 812 655.972, 815.829 672.895, 818.110 678.692 C 818.718 680.237, 821.179 689.150, 823.580 698.500 C 825.980 707.850, 830.467 724.950, 833.551 736.500 C 836.634 748.050, 841.306 765.825, 843.931 776 C 850.713 802.280, 852.900 806.702, 860.908 810.335 C 865.262 812.311, 868.095 812.469, 915.500 813.381 C 1007.940 815.161, 1012.959 814.931, 1018.864 808.645 C 1021.550 805.786, 1025.174 795.328, 1029.137 779 C 1030.805 772.125, 1033.067 763.350, 1034.164 759.500 C 1035.260 755.650, 1038.129 743.950, 1040.539 733.500 C 1042.950 723.050, 1045.579 712.700, 1046.381 710.500 C 1047.183 708.300, 1049.696 698.038, 1051.965 687.696 C 1054.234 677.354, 1056.520 667.762, 1057.045 666.381 C 1060.811 656.476, 1055.982 653.586, 1034 652.588 C 1001.120 651.096, 981.239 650.263, 979 650.282 C 977.625 650.293, 966.150 649.795, 953.500 649.175 C 932.530 648.148, 856.753 645.381, 832.500 644.757 C 827 644.616, 820.706 644.646, 818.513 644.825 M 696.147 659.811 C 693.257 662.348, 694.482 670.911, 698 672.763 C 701.154 674.423, 707.551 673.717, 710.078 671.430 C 712.334 669.388, 712.677 663.308, 710.689 660.589 C 708.806 658.014, 698.803 657.479, 696.147 659.811 M 850.511 682.983 C 849.506 684.608, 851.092 690.847, 853.186 693.509 C 854.537 695.227, 856.132 696.002, 858.323 696.006 C 860.070 696.009, 863.075 696.426, 865 696.934 C 866.925 697.442, 877.500 698.120, 888.500 698.442 C 922.130 699.425, 938.930 699.997, 979.174 701.526 C 1000.445 702.334, 1018.526 702.735, 1019.354 702.418 C 1022.353 701.267, 1024.139 692.177, 1021.750 690.222 C 1021.056 689.654, 1011.607 688.909, 1000.500 688.547 C 989.500 688.188, 973.075 687.283, 964 686.537 C 954.925 685.790, 945.250 685.171, 942.500 685.161 C 939.750 685.152, 920.400 684.438, 899.500 683.576 C 854.774 681.731, 851.310 681.689, 850.511 682.983 M 859.625 722.862 C 857.904 724.764, 857.911 725.011, 859.824 729.334 C 860.917 731.806, 862.642 734.269, 863.656 734.807 C 866.125 736.117, 889.641 737.317, 957.500 739.598 C 965.200 739.857, 974.425 740.270, 978 740.516 C 1006.378 742.468, 1008.915 742.429, 1011.504 739.996 C 1014.898 736.808, 1017.635 729.470, 1016.114 727.638 C 1014.895 726.169, 995.029 725.325, 919.500 723.533 C 895.990 722.975, 875.911 722.158, 867.457 721.416 C 862.298 720.963, 861.152 721.174, 859.625 722.862 M 767.477 756.666 C 766.181 757.962, 765.937 759.461, 766.380 763.416 C 766.693 766.212, 767.247 772.251, 767.611 776.836 C 768.467 787.618, 769.996 789.516, 781.154 793.661 C 789.917 796.916, 794.108 797.828, 813.187 800.632 C 829.670 803.054, 830.160 802.385, 825.466 783.868 C 820.195 763.071, 820.435 763.258, 791.573 757.554 C 776.317 754.540, 769.842 754.301, 767.477 756.666 M 1060 759.573 C 1049.768 761.425, 1048.449 762.181, 1045.581 767.841 C 1043.007 772.920, 1038 792.659, 1038 797.728 C 1038 803.634, 1041.855 804.309, 1055.720 800.831 C 1070.690 797.077, 1073.841 792.452, 1075.971 771.107 C 1076.729 763.506, 1076.705 760.350, 1075.881 759.357 C 1074.515 757.711, 1069.950 757.773, 1060 759.573 M 367.500 762.097 C 365.850 762.606, 356.679 764.155, 347.120 765.539 C 317.409 769.842, 287.500 776.622, 287.500 779.054 C 287.500 780.708, 286.987 780.713, 341.979 778.524 C 375.411 777.194, 376.512 777.085, 378.229 774.965 C 380.289 772.422, 380.662 764.062, 378.800 762.200 C 377.410 760.810, 371.837 760.760, 367.500 762.097 M 871.320 762.821 C 870.594 763.548, 870 764.298, 870 764.489 C 870 766.020, 874.094 773.833, 875.515 775.014 C 877.671 776.805, 904.559 777.731, 961.352 777.971 C 1002.490 778.144, 1000.969 778.394, 1002.978 771.119 C 1004.655 765.046, 1003.617 764.688, 983.287 764.339 C 973.504 764.171, 955.825 763.554, 944 762.968 C 910.213 761.294, 872.920 761.218, 871.320 762.821 M 693.711 767.013 C 689.950 769.971, 687.923 776.928, 685.517 795.138 C 680.448 833.512, 689.647 873.848, 700.709 861.750 C 705.635 856.362, 707.841 847.843, 709.974 825.966 C 712.213 803.005, 706.723 769.598, 700.131 766.070 C 697.376 764.596, 696.648 764.703, 693.711 767.013 M 619.856 776.516 C 615.483 778.892, 615 782.277, 615 810.538 C 615 841.163, 614.890 840.779, 624.088 842.085 C 633.425 843.411, 663.391 843.166, 665.330 841.748 C 666.875 840.618, 667.068 837.381, 667.301 808.728 C 667.462 788.957, 667.190 776.590, 666.580 775.980 C 664.914 774.314, 623.025 774.795, 619.856 776.516 M 575.019 782.210 C 573.945 783.975, 572.792 786.787, 572.457 788.460 C 572.122 790.132, 571.094 793.525, 570.174 796 C 568.788 799.726, 568.500 804.454, 568.500 823.500 L 568.500 846.500 572.408 855.250 C 575.598 862.391, 576.718 864, 578.503 864 C 583.583 864, 586.194 855.576, 588.164 832.834 C 589.987 811.790, 586.288 785.081, 580.952 780.760 C 577.967 778.343, 577.266 778.515, 575.019 782.210 M 544.738 787.114 C 538.929 790.406, 536.056 805.853, 536.537 831.196 C 536.928 851.768, 538.126 857.945, 542.746 863.218 C 549.874 871.352, 556.903 836.649, 554.016 807.573 C 553.365 801.013, 552.308 794.087, 551.666 792.182 C 550.225 787.901, 547.224 785.705, 544.738 787.114 M 361 799.687 C 356.325 800.490, 345.975 802.268, 338 803.638 C 330.025 805.008, 321.250 806.555, 318.500 807.077 C 315.750 807.598, 302.925 809.379, 290 811.033 C 255.397 815.462, 246.780 817.295, 246.177 820.359 C 245.698 822.790, 375.965 822.893, 378.394 820.463 C 379.871 818.986, 379.884 807.500, 378.417 800.250 C 377.867 797.531, 374.233 797.414, 361 799.687 M 449.212 803.250 C 445.324 807.952, 444.500 813.259, 444.500 833.581 C 444.500 852.736, 444.612 853.901, 446.921 858.831 C 450.046 865.503, 452.154 865.607, 455.368 859.250 C 460.179 849.734, 460.762 821.512, 456.375 810.500 C 455.499 808.300, 454.390 805.487, 453.912 804.250 C 452.954 801.769, 450.812 801.314, 449.212 803.250 M 420.644 805.183 C 418.180 809.013, 416.999 818.523, 417.012 834.434 C 417.028 854.637, 419.533 864.390, 424.082 861.956 C 427.055 860.365, 427.955 857.748, 429.454 846.330 C 432.258 824.987, 426.175 796.583, 420.644 805.183 M 341 842.678 C 331.055 843.235, 327 844.053, 327 845.500 C 327 846.371, 328.562 847.071, 331.250 847.404 C 333.587 847.693, 338.650 848.399, 342.500 848.972 C 354.224 850.717, 374.645 852.350, 376.387 851.682 C 378.453 850.889, 380.242 846.337, 379.458 843.868 C 378.908 842.135, 377.695 842.013, 362.683 842.185 C 353.782 842.287, 344.025 842.509, 341 842.678 M 505.573 854.570 C 504.709 855.433, 503.738 857.346, 503.414 858.820 C 503.090 860.294, 502.166 863.900, 501.360 866.834 C 499.148 874.888, 499.369 875, 517.500 875 C 535.666 875, 535.755 874.954, 533.993 866.467 C 531.898 856.375, 526.825 853.076, 513.321 853.024 C 509.015 853.007, 506.667 853.476, 505.573 854.570 M 643.634 861.509 C 642.315 862.828, 640.024 868.933, 640.006 871.179 C 640.003 871.552, 640.707 872.564, 641.571 873.429 C 642.879 874.736, 646.024 874.997, 660.321 874.985 C 669.770 874.976, 678.129 874.571, 678.897 874.085 C 680.499 873.070, 679.965 867.788, 677.805 863.276 L 676.475 860.500 660.834 860.225 C 647.748 859.995, 644.938 860.205, 643.634 861.509 M 811.150 867.692 C 809.444 868.376, 805.023 877.764, 805.010 880.731 C 805.003 882.242, 805.726 883.115, 807.250 883.435 C 809.676 883.945, 838.997 884.615, 902.733 885.617 C 948.326 886.334, 946.656 886.639, 940.819 878.662 C 938.994 876.168, 936.591 872.636, 935.479 870.813 L 933.459 867.500 872.979 867.325 C 839.716 867.229, 811.892 867.394, 811.150 867.692" stroke="none" fill="#000000" fill-rule="evenodd"/><path d="M 0 130 C 0 201.500, 0.372 260, 0.828 260 C 1.283 260, 3.560 255.628, 5.889 250.285 C 20.039 217.811, 47.310 190.911, 81.011 176.183 C 95.686 169.770, 104.842 167.392, 123.500 165.145 C 144.653 162.597, 161.150 163.571, 182 168.598 C 194.104 171.516, 216.112 181.868, 227.231 189.873 C 241.812 200.371, 257.871 216.751, 265.422 228.827 C 267.030 231.397, 269.413 235.129, 270.719 237.121 C 273.420 241.240, 281.224 259.578, 284.030 268.400 C 287.863 280.448, 289.392 292.715, 289.400 311.500 C 289.419 352.598, 281.776 374.779, 247.437 433.282 C 245.752 436.152, 239.940 445.250, 234.521 453.500 C 224.950 468.071, 218.091 478.619, 209.485 492 C 201.194 504.891, 165.945 557.657, 161.053 564.500 C 158.300 568.350, 153.963 574.559, 151.415 578.298 C 144.832 587.958, 143.039 588.953, 138.103 585.687 C 135.975 584.279, 132.493 580.628, 130.367 577.575 C 128.240 574.521, 122.586 566.506, 117.803 559.762 C 104.217 540.606, 102.137 537.495, 85.880 512 C 82.898 507.325, 79.793 502.276, 78.980 500.779 C 78.166 499.283, 75.892 495.683, 73.927 492.779 C 66.559 481.893, 61.171 473.390, 59.493 470 C 58.541 468.075, 56.442 464.700, 54.830 462.500 C 46.844 451.601, 28.369 419.660, 15.209 394 C 11.402 386.575, 6.810 376.776, 5.006 372.224 C 3.202 367.673, 1.338 363.709, 0.863 363.415 C 0.380 363.117, 0 520.548, 0 721.442 L 0 1080.002 540.250 1079.751 L 1080.500 1079.500 1080.642 539.750 L 1080.784 0 540.392 0 L 0 0 0 130 M 0.485 130.500 C 0.485 202, 0.604 231.103, 0.750 195.172 C 0.895 159.242, 0.895 100.742, 0.750 65.172 C 0.604 29.603, 0.485 59, 0.485 130.500 M 119.709 3.238 C 99.349 4.512, 90.488 6.853, 69.309 16.552 C 51.948 24.503, 32.423 42.574, 23.217 59.213 C 16.003 72.253, 10.473 89.736, 9.023 104.095 C 7.636 117.838, 8.091 179.491, 9.591 180.991 C 10.691 182.091, 13.106 180.538, 22.790 172.500 C 26.103 169.750, 33.114 163.996, 38.370 159.713 C 50.391 149.918, 50.266 150.281, 50.493 124.500 C 50.709 100.105, 50.980 98.724, 59.189 80.318 C 64.830 67.670, 80.834 55.103, 98 49.843 L 105.500 47.545 226.500 47.022 L 347.500 46.500 351 44.313 C 357.710 40.120, 380.709 15.844, 382.972 10.566 C 384.126 7.874, 384.717 5.325, 384.285 4.903 C 383.853 4.481, 330.850 3.877, 266.500 3.562 C 202.150 3.246, 145.450 2.878, 140.500 2.744 C 135.550 2.610, 126.194 2.832, 119.709 3.238 M 618.500 3 L 459.500 3.500 452 6.553 C 434.105 13.837, 422.166 24.716, 383.044 69.393 C 362.113 93.296, 360.913 94.995, 354.740 109.462 C 352.175 115.473, 351.672 118.106, 351.290 127.500 L 350.843 138.500 354.926 147.157 C 362.497 163.210, 356.348 156.697, 478.721 278.258 C 518.736 318.008, 534.019 333.808, 534.479 335.905 C 535.508 340.587, 532.743 345.333, 521.779 357.705 C 507.541 373.771, 495.671 387.393, 488 396.473 C 484.425 400.704, 477.450 408.795, 472.500 414.454 C 467.550 420.113, 460.575 428.230, 457 432.491 C 450.497 440.243, 444.846 446.757, 420.500 474.567 C 402.526 495.098, 392.112 506.939, 381 519.479 C 375.775 525.375, 370.150 531.921, 368.500 534.026 C 365.343 538.053, 349.684 556.822, 344.394 562.920 C 340.428 567.492, 338.706 570.790, 339.374 572.533 C 340.676 575.924, 361.105 583, 369.595 583 C 376.552 583, 379.085 580.613, 411 543.976 C 417.875 536.084, 431.600 520.646, 441.500 509.669 C 451.400 498.692, 460.990 487.877, 462.812 485.637 C 466.076 481.621, 478.527 468.017, 500.462 444.500 C 506.619 437.900, 522.452 420.800, 535.647 406.500 C 548.843 392.200, 565.008 375.042, 571.570 368.372 C 584.644 355.080, 582.762 356.274, 623 335.754 C 662.036 315.847, 679.633 306.660, 681 305.476 C 681.825 304.762, 686.550 302.176, 691.500 299.731 C 706.945 292.101, 719.844 285.375, 721.219 284.233 C 721.946 283.630, 726.806 280.914, 732.020 278.197 C 737.234 275.480, 746.675 270.448, 753 267.015 C 759.325 263.582, 768.775 258.512, 774 255.748 C 779.225 252.984, 787.848 248.423, 793.162 245.611 C 819.307 231.780, 845.414 217.801, 863.500 207.951 C 909.720 182.778, 916.964 179.053, 919.750 179.024 C 920.987 179.011, 922.106 179.113, 922.236 179.250 C 922.366 179.387, 922.703 217.969, 922.986 264.987 L 923.500 350.473 926 351.630 C 930.256 353.598, 961.556 355.613, 963.450 354.041 C 964.878 352.856, 965.003 340.838, 964.739 229.615 C 964.449 106.747, 964.444 106.477, 962.211 95.261 C 955.715 62.624, 944.170 43.332, 918.964 23 C 914.513 19.409, 912.419 18.187, 899.800 11.812 C 891.797 7.769, 881.308 4.566, 872.304 3.416 C 864.866 2.465, 814.706 2.383, 618.500 3 M 452.934 48.827 C 450.482 50.382, 446.477 54.095, 444.033 57.077 C 441.590 60.060, 437.770 64.564, 435.545 67.086 C 433.320 69.608, 428.575 75.179, 425 79.465 C 421.425 83.751, 414.675 91.641, 410 96.999 C 394.965 114.231, 389.365 128.976, 394.757 137.140 C 397.378 141.110, 411.407 155.277, 445.613 188.497 C 462.601 204.996, 494.725 236.791, 517 259.154 C 553.939 296.238, 558.122 300.123, 564.574 303.331 C 583.107 312.545, 593.191 310.472, 631.500 289.572 C 658.449 274.870, 680.267 263.199, 692.500 256.942 C 698 254.129, 707.450 249.139, 713.500 245.852 C 719.550 242.565, 728.550 237.745, 733.500 235.140 C 738.450 232.536, 744.356 229.219, 746.623 227.770 C 748.891 226.320, 753.616 223.733, 757.123 222.020 C 760.631 220.306, 768.225 216.259, 774 213.027 C 779.775 209.794, 786.975 205.851, 790 204.265 C 800.003 199.020, 818.443 189.092, 822 187.035 C 825.636 184.933, 838.920 177.802, 853.845 169.941 C 858.605 167.434, 867.900 162.534, 874.500 159.052 C 881.100 155.570, 891 150.392, 896.500 147.545 C 911.846 139.600, 917.362 136.308, 919.955 133.547 L 922.333 131.016 921.096 116.891 C 918.553 87.867, 913.023 75.924, 894.755 60 C 885.025 51.519, 879.322 48.622, 869 46.919 C 865.835 46.397, 777.287 46.009, 660.446 46.006 L 457.392 46 452.934 48.827 M 124.773 243.501 C 101.403 249.385, 82.217 270.120, 75.447 296.807 C 72.255 309.392, 72.342 316.100, 75.862 328.699 C 82.030 350.777, 98.376 369.329, 116.626 374.966 C 146.974 384.340, 173.354 378.237, 193.667 357.144 C 201.762 348.738, 208.845 335.857, 211.067 325.500 C 212.779 317.518, 212.788 301.830, 211.083 295 C 205.650 273.235, 186.705 252.208, 166.322 245.320 C 156.585 242.030, 134.463 241.062, 124.773 243.501 M 0.495 721.500 C 0.495 918.950, 0.609 999.576, 0.750 900.669 C 0.890 801.762, 0.890 640.212, 0.750 541.669 C 0.609 443.126, 0.495 524.050, 0.495 721.500 M 668.344 375.041 C 660.907 376.513, 652.672 381.704, 638.347 393.950 C 636.063 395.902, 630.663 400.500, 626.347 404.167 C 622.031 407.833, 610.850 417.401, 601.500 425.429 C 592.150 433.457, 581.174 442.832, 577.109 446.263 C 573.045 449.693, 563.820 457.914, 556.609 464.530 C 540.905 478.942, 526.242 491.982, 515.037 501.500 C 510.505 505.350, 504.705 510.379, 502.149 512.675 C 499.592 514.971, 491.875 521.885, 485 528.041 C 478.125 534.196, 469.166 542.217, 465.091 545.866 C 461.016 549.515, 455.616 554.322, 453.091 556.548 C 450.566 558.775, 441.075 567.325, 432 575.548 C 422.925 583.772, 411.928 593.650, 407.563 597.500 C 403.198 601.350, 398.186 605.856, 396.425 607.513 L 393.223 610.526 393.638 690.513 C 394.042 768.295, 394.106 770.509, 395.963 770.811 C 398.372 771.204, 425.345 765.673, 434 763.011 C 441.085 760.833, 469.823 753.544, 499 746.526 C 509.175 744.079, 519.300 741.401, 521.500 740.575 C 523.700 739.748, 533.659 737.255, 543.631 735.034 C 553.602 732.813, 563.535 730.370, 565.704 729.604 C 567.872 728.839, 578.255 726.362, 588.776 724.100 C 599.298 721.837, 609.116 719.526, 610.595 718.964 C 612.074 718.401, 617.383 717.039, 622.392 715.935 C 634.682 713.228, 634.840 713.168, 636.149 710.721 C 637.537 708.128, 637.830 687.420, 638.577 539 L 639.127 429.500 641.314 425.052 C 644.212 419.155, 648.241 416.125, 650.591 418.075 C 652.159 419.377, 652.224 428.158, 651.538 546.986 C 651.134 617.119, 650.828 681.025, 650.859 689 C 650.921 705.102, 649.563 722.080, 647.975 725.046 C 646.165 728.428, 641.539 729.937, 618.757 734.579 C 606.516 737.073, 594.925 739.732, 593 740.488 C 591.075 741.244, 579.825 743.724, 568 746 C 556.175 748.276, 544.623 750.765, 542.328 751.531 C 540.034 752.297, 528.784 754.769, 517.328 757.025 C 505.873 759.280, 494.250 761.766, 491.500 762.548 C 488.750 763.330, 476.150 766.057, 463.500 768.609 C 450.850 771.161, 433.975 774.563, 426 776.169 C 392.179 782.981, 393.680 782.277, 392.599 791.825 C 391.553 801.070, 393.169 805.834, 397.993 807.729 L 401.850 809.245 401.308 827.372 C 400.715 847.177, 401.706 857.524, 405.179 867.809 C 408.402 877.352, 410.126 876.851, 371.994 877.460 C 324.812 878.214, 273.542 880.139, 261.750 881.600 C 256.176 882.290, 255.256 884.633, 260.250 885.424 C 263.138 885.881, 281.628 886.895, 317 888.538 C 323.325 888.832, 345.825 889.746, 367 890.570 C 418.551 892.577, 423.326 892.800, 439 893.946 C 446.425 894.489, 460.600 895.180, 470.500 895.482 C 480.400 895.784, 509.200 896.686, 534.500 897.486 C 559.800 898.287, 591.525 899.201, 605 899.517 C 618.475 899.832, 635.350 900.280, 642.500 900.512 C 760.121 904.322, 959.492 902.776, 1033.500 897.481 C 1054.982 895.944, 1059.500 895.155, 1059.500 892.942 C 1059.500 890.328, 1054.361 889.028, 1038.991 887.754 C 1019.907 886.172, 1019.928 886.191, 1025.455 875.264 C 1027.615 870.994, 1029.557 867.275, 1029.770 867 C 1029.984 866.725, 1035.716 866.275, 1042.508 866 C 1057.484 865.394, 1058.851 864.644, 1064.250 854.071 C 1068.669 845.417, 1068.825 843.734, 1065.514 840.423 L 1063.028 837.937 907.764 838.362 C 822.369 838.595, 750.459 839.097, 747.964 839.477 C 740.281 840.646, 738.823 838.641, 737.337 824.864 C 736.663 818.614, 735.665 810.800, 735.119 807.500 C 734.573 804.200, 733.176 793.625, 732.013 784 C 728.066 751.303, 722.755 732.875, 714.938 724.750 C 710.445 720.080, 710.263 720, 704.134 720 C 693.948 720, 689.132 723.885, 682.379 737.548 C 678.166 746.071, 676.879 747.105, 673.868 744.380 C 671.827 742.533, 671.816 742.134, 672.526 696.509 C 672.921 671.204, 673.371 647.800, 673.527 644.500 C 674.096 632.448, 675.922 580.981, 676.454 562 C 677.394 528.448, 678.895 497.781, 679.953 490.500 C 681.446 480.230, 682.670 476.542, 688.102 465.929 C 693.110 456.146, 698.236 450.841, 709.056 444.245 C 714.183 441.119, 733.597 433.473, 740.019 432.051 C 751.789 429.443, 840.539 431.467, 868.500 434.980 C 872.350 435.464, 879.100 436.316, 883.500 436.875 C 887.900 437.433, 897.800 438.402, 905.500 439.028 C 926.923 440.769, 972.777 445.867, 976.863 446.962 C 978.863 447.498, 986.737 448.640, 994.360 449.500 C 1012.699 451.568, 1013.881 450.593, 1008.028 438.221 C 999.333 419.842, 981.346 404.779, 962.500 400.095 C 957.766 398.918, 921.158 394.403, 909 393.497 C 904.325 393.148, 899.150 392.459, 897.500 391.966 C 894.993 391.216, 854.359 387.451, 800.500 382.977 C 793.900 382.429, 786.700 381.546, 784.500 381.014 C 782.300 380.483, 769.025 379.142, 755 378.036 C 705.382 374.120, 677.814 373.168, 668.344 375.041 M 769.039 485.123 C 767.367 486.139, 765.953 487.315, 765.895 487.735 C 765.365 491.592, 765.497 502.667, 766.130 507.500 C 766.562 510.800, 767.611 520.925, 768.462 530 C 770.579 552.578, 772.796 573.742, 774.166 584.441 C 775.227 592.730, 775.593 593.688, 779.179 597.579 C 781.307 599.887, 784.275 602.037, 785.774 602.355 C 788.182 602.867, 827.374 604.681, 907.500 607.990 C 921.250 608.558, 935.200 609.456, 938.500 609.986 C 941.800 610.516, 956.650 611.425, 971.500 612.007 C 986.350 612.589, 1012.221 613.698, 1028.990 614.470 C 1064.238 616.095, 1063 616.344, 1063 607.618 C 1063 600.972, 1058.274 555.794, 1056.973 550 C 1056.417 547.525, 1055.108 538.237, 1054.064 529.360 C 1052.967 520.039, 1051.484 511.904, 1050.554 510.105 C 1048.739 506.595, 1043.031 502.458, 1037.918 500.947 C 1028.509 498.166, 985.078 494.087, 937 491.469 C 930.675 491.125, 924.150 490.453, 922.500 489.976 C 916.539 488.252, 834.497 484.055, 797.789 483.596 C 774.210 483.302, 771.825 483.428, 769.039 485.123 M 8.495 485.009 C 7.441 486.713, 7.982 739.395, 9.057 748.172 C 9.619 752.753, 10.685 758.300, 11.425 760.500 C 12.166 762.700, 13.538 767.200, 14.473 770.500 C 20.154 790.538, 35.674 812.540, 54.580 827.355 C 72.591 841.469, 106.814 850.329, 131.319 847.224 C 141.445 845.940, 154.243 841.995, 157.441 839.172 C 158.574 838.172, 161.750 835.931, 164.500 834.191 C 169.757 830.865, 174.556 825.899, 198.507 799 C 206.588 789.925, 216.039 779.350, 219.509 775.500 C 238.646 754.267, 253.971 736.912, 257.479 732.500 C 259.666 729.750, 264.181 724.350, 267.513 720.500 C 270.844 716.650, 275.475 711.025, 277.803 708 C 283.136 701.070, 288.314 694.761, 298.750 682.478 C 307.525 672.149, 307.989 671.172, 305.250 668.786 C 301.411 665.442, 269.602 659.072, 266.100 660.946 C 264.061 662.038, 248.428 679.064, 239.500 689.917 C 236.200 693.929, 231.475 699.589, 229 702.496 C 226.525 705.402, 222.025 710.815, 219 714.524 C 208.748 727.094, 201.541 735.455, 184.500 754.543 C 175.150 765.017, 162.775 779.086, 157 785.808 C 143.037 802.060, 140.249 803.546, 124 803.390 C 83.938 803.005, 60.733 785.353, 51.845 748.500 C 51.274 746.134, 50.664 700.985, 50.352 638 L 49.824 531.500 47.391 527.087 C 44.738 522.274, 44.009 521.392, 24.852 499.822 C 12.001 485.352, 9.617 483.193, 8.495 485.009 M 735 495.683 C 733.625 495.908, 728.547 496.750, 723.715 497.552 C 714.328 499.112, 703.670 503.376, 700.662 506.775 C 699.540 508.042, 698.482 511.510, 697.945 515.676 C 696.701 525.325, 696.751 591.666, 698.003 594.006 C 699.789 597.343, 722.812 602.803, 746.500 605.508 C 755.826 606.573, 756.218 604.875, 753.890 573.500 C 752.910 560.300, 751.352 537.800, 750.427 523.500 C 749.501 509.200, 748.297 496.938, 747.750 496.250 C 746.799 495.055, 740.525 494.776, 735 495.683 M 1066.515 509.976 C 1066.183 510.513, 1066.389 513.550, 1066.973 516.726 C 1067.557 519.902, 1069.639 536.675, 1071.599 554 C 1073.559 571.325, 1075.643 587.525, 1076.229 590 C 1076.816 592.475, 1077.848 598.325, 1078.522 603 C 1079.599 610.459, 1079.764 605.530, 1079.874 562.750 C 1079.976 523.243, 1079.752 514, 1078.694 514 C 1077.976 514, 1075.864 512.875, 1074 511.500 C 1070.474 508.898, 1067.549 508.303, 1066.515 509.976 M 189.114 563.750 C 186.893 565.594, 182.497 577.042, 181.417 583.793 C 180.563 589.135, 182.641 591.103, 192.110 593.915 C 196.175 595.122, 203.325 597.627, 208 599.481 C 212.675 601.334, 219.268 603.415, 222.651 604.105 C 230.951 605.797, 233.022 604.449, 236.038 595.387 C 241.080 580.236, 239.409 577.411, 221.408 570.656 C 198.025 561.881, 192.730 560.748, 189.114 563.750 M 258.149 588.851 C 255.864 591.136, 252 602.649, 252 607.171 C 252 608.799, 252.486 611.039, 253.079 612.148 C 255.469 616.614, 283.604 626.905, 294.584 627.330 C 300.869 627.573, 303.535 624.589, 305.619 614.979 C 307.086 608.211, 307.093 607.150, 305.699 603.816 C 303.755 599.171, 301.151 597.808, 283.500 592.200 C 266.221 586.710, 260.982 586.018, 258.149 588.851 M 326.900 607.634 C 326.020 608.660, 324.108 613.325, 322.651 618 C 318.299 631.967, 320.111 635.181, 334.500 639.015 C 338.900 640.187, 344.300 641.768, 346.500 642.528 C 353.919 645.091, 361.729 646.216, 363.931 645.037 C 367.440 643.159, 371.684 625.259, 369.860 620.027 C 368.554 616.283, 367.729 615.826, 353.385 610.919 C 339.343 606.114, 329.275 604.866, 326.900 607.634 M 818.513 644.825 C 813.134 645.262, 812 646.458, 812 651.691 C 812 655.972, 815.829 672.895, 818.110 678.692 C 818.718 680.237, 821.179 689.150, 823.580 698.500 C 825.980 707.850, 830.467 724.950, 833.551 736.500 C 836.634 748.050, 841.306 765.825, 843.931 776 C 850.713 802.280, 852.900 806.702, 860.908 810.335 C 865.262 812.311, 868.095 812.469, 915.500 813.381 C 1007.940 815.161, 1012.959 814.931, 1018.864 808.645 C 1021.550 805.786, 1025.174 795.328, 1029.137 779 C 1030.805 772.125, 1033.067 763.350, 1034.164 759.500 C 1035.260 755.650, 1038.129 743.950, 1040.539 733.500 C 1042.950 723.050, 1045.579 712.700, 1046.381 710.500 C 1047.183 708.300, 1049.696 698.038, 1051.965 687.696 C 1054.234 677.354, 1056.520 667.762, 1057.045 666.381 C 1060.811 656.476, 1055.982 653.586, 1034 652.588 C 1001.120 651.096, 981.239 650.263, 979 650.282 C 977.625 650.293, 966.150 649.795, 953.500 649.175 C 932.530 648.148, 856.753 645.381, 832.500 644.757 C 827 644.616, 820.706 644.646, 818.513 644.825 M 696.147 659.811 C 693.257 662.348, 694.482 670.911, 698 672.763 C 701.154 674.423, 707.551 673.717, 710.078 671.430 C 712.334 669.388, 712.677 663.308, 710.689 660.589 C 708.806 658.014, 698.803 657.479, 696.147 659.811 M 850.511 682.983 C 849.506 684.608, 851.092 690.847, 853.186 693.509 C 854.537 695.227, 856.132 696.002, 858.323 696.006 C 860.070 696.009, 863.075 696.426, 865 696.934 C 866.925 697.442, 877.500 698.120, 888.500 698.442 C 922.130 699.425, 938.930 699.997, 979.174 701.526 C 1000.445 702.334, 1018.526 702.735, 1019.354 702.418 C 1022.353 701.267, 1024.139 692.177, 1021.750 690.222 C 1021.056 689.654, 1011.607 688.909, 1000.500 688.547 C 989.500 688.188, 973.075 687.283, 964 686.537 C 954.925 685.790, 945.250 685.171, 942.500 685.161 C 939.750 685.152, 920.400 684.438, 899.500 683.576 C 854.774 681.731, 851.310 681.689, 850.511 682.983 M 859.625 722.862 C 857.904 724.764, 857.911 725.011, 859.824 729.334 C 860.917 731.806, 862.642 734.269, 863.656 734.807 C 866.125 736.117, 889.641 737.317, 957.500 739.598 C 965.200 739.857, 974.425 740.270, 978 740.516 C 1006.378 742.468, 1008.915 742.429, 1011.504 739.996 C 1014.898 736.808, 1017.635 729.470, 1016.114 727.638 C 1014.895 726.169, 995.029 725.325, 919.500 723.533 C 895.990 722.975, 875.911 722.158, 867.457 721.416 C 862.298 720.963, 861.152 721.174, 859.625 722.862 M 767.477 756.666 C 766.181 757.962, 765.937 759.461, 766.380 763.416 C 766.693 766.212, 767.247 772.251, 767.611 776.836 C 768.467 787.618, 769.996 789.516, 781.154 793.661 C 789.917 796.916, 794.108 797.828, 813.187 800.632 C 829.670 803.054, 830.160 802.385, 825.466 783.868 C 820.195 763.071, 820.435 763.258, 791.573 757.554 C 776.317 754.540, 769.842 754.301, 767.477 756.666 M 1060 759.573 C 1049.768 761.425, 1048.449 762.181, 1045.581 767.841 C 1043.007 772.920, 1038 792.659, 1038 797.728 C 1038 803.634, 1041.855 804.309, 1055.720 800.831 C 1070.690 797.077, 1073.841 792.452, 1075.971 771.107 C 1076.729 763.506, 1076.705 760.350, 1075.881 759.357 C 1074.515 757.711, 1069.950 757.773, 1060 759.573 M 367.500 762.097 C 365.850 762.606, 356.679 764.155, 347.120 765.539 C 317.409 769.842, 287.500 776.622, 287.500 779.054 C 287.500 780.708, 286.987 780.713, 341.979 778.524 C 375.411 777.194, 376.512 777.085, 378.229 774.965 C 380.289 772.422, 380.662 764.062, 378.800 762.200 C 377.410 760.810, 371.837 760.760, 367.500 762.097 M 871.320 762.821 C 870.594 763.548, 870 764.298, 870 764.489 C 870 766.020, 874.094 773.833, 875.515 775.014 C 877.671 776.805, 904.559 777.731, 961.352 777.971 C 1002.490 778.144, 1000.969 778.394, 1002.978 771.119 C 1004.655 765.046, 1003.617 764.688, 983.287 764.339 C 973.504 764.171, 955.825 763.554, 944 762.968 C 910.213 761.294, 872.920 761.218, 871.320 762.821 M 693.711 767.013 C 689.950 769.971, 687.923 776.928, 685.517 795.138 C 680.448 833.512, 689.647 873.848, 700.709 861.750 C 705.635 856.362, 707.841 847.843, 709.974 825.966 C 712.213 803.005, 706.723 769.598, 700.131 766.070 C 697.376 764.596, 696.648 764.703, 693.711 767.013 M 619.856 776.516 C 615.483 778.892, 615 782.277, 615 810.538 C 615 841.163, 614.890 840.779, 624.088 842.085 C 633.425 843.411, 663.391 843.166, 665.330 841.748 C 666.875 840.618, 667.068 837.381, 667.301 808.728 C 667.462 788.957, 667.190 776.590, 666.580 775.980 C 664.914 774.314, 623.025 774.795, 619.856 776.516 M 575.019 782.210 C 573.945 783.975, 572.792 786.787, 572.457 788.460 C 572.122 790.132, 571.094 793.525, 570.174 796 C 568.788 799.726, 568.500 804.454, 568.500 823.500 L 568.500 846.500 572.408 855.250 C 575.598 862.391, 576.718 864, 578.503 864 C 583.583 864, 586.194 855.576, 588.164 832.834 C 589.987 811.790, 586.288 785.081, 580.952 780.760 C 577.967 778.343, 577.266 778.515, 575.019 782.210 M 544.738 787.114 C 538.929 790.406, 536.056 805.853, 536.537 831.196 C 536.928 851.768, 538.126 857.945, 542.746 863.218 C 549.874 871.352, 556.903 836.649, 554.016 807.573 C 553.365 801.013, 552.308 794.087, 551.666 792.182 C 550.225 787.901, 547.224 785.705, 544.738 787.114 M 361 799.687 C 356.325 800.490, 345.975 802.268, 338 803.638 C 330.025 805.008, 321.250 806.555, 318.500 807.077 C 315.750 807.598, 302.925 809.379, 290 811.033 C 255.397 815.462, 246.780 817.295, 246.177 820.359 C 245.698 822.790, 375.965 822.893, 378.394 820.463 C 379.871 818.986, 379.884 807.500, 378.417 800.250 C 377.867 797.531, 374.233 797.414, 361 799.687 M 449.212 803.250 C 445.324 807.952, 444.500 813.259, 444.500 833.581 C 444.500 852.736, 444.612 853.901, 446.921 858.831 C 450.046 865.503, 452.154 865.607, 455.368 859.250 C 460.179 849.734, 460.762 821.512, 456.375 810.500 C 455.499 808.300, 454.390 805.487, 453.912 804.250 C 452.954 801.769, 450.812 801.314, 449.212 803.250 M 420.644 805.183 C 418.180 809.013, 416.999 818.523, 417.012 834.434 C 417.028 854.637, 419.533 864.390, 424.082 861.956 C 427.055 860.365, 427.955 857.748, 429.454 846.330 C 432.258 824.987, 426.175 796.583, 420.644 805.183 M 341 842.678 C 331.055 843.235, 327 844.053, 327 845.500 C 327 846.371, 328.562 847.071, 331.250 847.404 C 333.587 847.693, 338.650 848.399, 342.500 848.972 C 354.224 850.717, 374.645 852.350, 376.387 851.682 C 378.453 850.889, 380.242 846.337, 379.458 843.868 C 378.908 842.135, 377.695 842.013, 362.683 842.185 C 353.782 842.287, 344.025 842.509, 341 842.678 M 505.573 854.570 C 504.709 855.433, 503.738 857.346, 503.414 858.820 C 503.090 860.294, 502.166 863.900, 501.360 866.834 C 499.148 874.888, 499.369 875, 517.500 875 C 535.666 875, 535.755 874.954, 533.993 866.467 C 531.898 856.375, 526.825 853.076, 513.321 853.024 C 509.015 853.007, 506.667 853.476, 505.573 854.570 M 643.634 861.509 C 642.315 862.828, 640.024 868.933, 640.006 871.179 C 640.003 871.552, 640.707 872.564, 641.571 873.429 C 642.879 874.736, 646.024 874.997, 660.321 874.985 C 669.770 874.976, 678.129 874.571, 678.897 874.085 C 680.499 873.070, 679.965 867.788, 677.805 863.276 L 676.475 860.500 660.834 860.225 C 647.748 859.995, 644.938 860.205, 643.634 861.509 M 811.150 867.692 C 809.444 868.376, 805.023 877.764, 805.010 880.731 C 805.003 882.242, 805.726 883.115, 807.250 883.435 C 809.676 883.945, 838.997 884.615, 902.733 885.617 C 948.326 886.334, 946.656 886.639, 940.819 878.662 C 938.994 876.168, 936.591 872.636, 935.479 870.813 L 933.459 867.500 872.979 867.325 C 839.716 867.229, 811.892 867.394, 811.150 867.692" stroke="none" fill="#ffffff" fill-rule="evenodd"/></svg>